PathFileType	4	(X/Y/Z)	C:\Users\gl24\Desktop\Patient 1 Synergy Driven Model\NMS_Pipeline_Results_NewModel\Right\TRC Data (Extra Frame)\Patient3_NormalGait_1pt2_02_Right_25.trc.trc
DataRate	CameraRate	NumFrames	NumMarkers	Units	OrigDataRate	OrigDataStartFrame	OrigNumFrames
87.500000000000	87.500000000000	5	33	mm	87.500000000000	36	       142
Frame#	Time	L.Toe			R.Toe			L.Heel			Neck			R.Shoulder			L.Shank.Lateral			R.Shank.Lateral			R.Midfoot.Lateral			L.Shoulder			R.Midfoot.Superior			R.Elbow			L.Wrist			L.Elbow			R.Heel			R.Wrist			L.Midfoot.Superior			R.Thigh.Superior			Sternum			R.Shank.Superior			R.Shank.Inferior			L.Thigh.Superior			R.Patella			L.Midfoot.Lateral			L.Shank.Inferior			L.Patella			R.Thigh.Inferior			R.Thigh.Lateral			L.Thigh.Inferior			L.Thigh.Lateral			R.Asis			L.Asis			L.Shank.Superior			Sacral			
		X1	Y1	Z1	X2	Y2	Z2	X3	Y3	Z3	X4	Y4	Z4	X5	Y5	Z5	X6	Y6	Z6	X7	Y7	Z7	X8	Y8	Z8	X9	Y9	Z9	X10	Y10	Z10	X11	Y11	Z11	X12	Y12	Z12	X13	Y13	Z13	X14	Y14	Z14	X15	Y15	Z15	X16	Y16	Z16	X17	Y17	Z17	X18	Y18	Z18	X19	Y19	Z19	X20	Y20	Z20	X21	Y21	Z21	X22	Y22	Z22	X23	Y23	Z23	X24	Y24	Z24	X25	Y25	Z25	X26	Y26	Z26	X27	Y27	Z27	X28	Y28	Z28	X29	Y29	Z29	X30	Y30	Z30	X31	Y31	Z31	X32	Y32	Z32	X33	Y33	Z33	

36	28.720000000000	275.518885462076	22.525242579036	394.508085978038	965.424011926236	44.560085428377	548.334608091189	146.741691880228	265.365340789194	440.847563590776	520.080309452603	1430.714042172263	490.344910299873	582.984341561986	1391.869027516913	654.890870067163	396.740638589386	390.706762013805	329.831836159986	732.202864313446	342.266701324242	646.945202474244	752.498675627898	29.989981108919	589.852212685015	596.267492705275	1410.396136673190	336.930235226243	841.493514515054	91.452360994031	544.744312449361	539.715364103525	1044.674385171581	744.335642624971	777.202324660192	886.979919667487	203.279678056960	596.768163451922	1073.346807360690	216.854897284546	667.730753446184	38.380189379938	527.572113404267	607.998865066552	801.201299860374	773.513263094954	262.523480696742	129.494545974832	400.326840086299	776.804371856110	730.770023589339	608.513843347886	683.942464587222	1351.523816197946	493.536001024462	806.122626086144	393.990016828783	590.660433258269	793.949778182134	218.841588945745	566.360171581113	688.423861654746	690.990289412818	350.614810944435	822.775732149572	512.707368648210	577.579863363350	164.742261990789	188.678343207980	377.245764728980	371.652518612585	270.635616166981	388.903203072829	623.651836532443	418.241762666965	379.987314890345	800.514590170293	623.191818510892	589.432067552770	711.259723642800	658.283173566648	664.579838728383	667.514708427624	560.071740561473	360.122349117853	583.356195833265	621.901228330288	317.966524735861	680.423866429398	960.426022001745	608.610155599591	671.618224766631	925.706045184945	350.846170732924	502.158193256582	359.278961718517	369.940655153834	495.702706599015	963.602319066706	491.229057988714	
37	28.731428571429	274.491590436717	22.526694493408	394.027389609351	951.642591294619	44.076243731286	548.353029840123	158.701257820104	277.760585352171	440.436970680088	520.275078625429	1432.504527760445	491.751489773033	584.305265136626	1393.469074926810	655.776779310596	411.564399785451	392.909008714337	330.705619128397	724.019867061045	342.843016547305	646.672921546839	738.672705627789	30.354832029001	590.037834670751	595.652025255325	1412.170575930539	337.867382028716	827.823773872723	91.358491882658	544.607436349028	546.419511054055	1045.750483680699	746.723925793821	769.776391271444	883.414865858931	204.665858081746	594.885940667893	1074.877437618049	219.611877223143	653.954631099385	38.376783196585	527.759415614763	619.199683641056	803.504367868434	775.383048191576	268.820379174955	136.016340644268	400.622370906870	775.811384940078	731.050330464537	609.269542289312	684.124693841039	1353.049545696346	493.825191537693	799.227965471766	392.954526001742	590.816418309681	783.175702463341	218.277376162407	566.326183368946	695.020460466306	693.061172247061	353.565590445980	818.405295555976	511.618498183624	577.588017639739	173.527625546407	200.123681304591	376.728472466865	382.955720916186	273.811015533642	390.286411400055	638.857027238637	418.105710801217	383.299723185778	797.758617606056	623.078387588975	589.903986355209	709.449750825017	659.223473266516	665.407424411103	678.721043877104	561.649340679421	363.451051026005	592.504905587409	620.576746834172	319.955699689811	680.942071285098	962.721745405932	609.543527509619	670.863105888650	926.934745215516	351.994455664816	516.102151381713	359.053850330239	372.178994299417	495.542496271066	965.366311361141	492.833329961078	
38	28.742857142857	277.943587383204	23.782404663686	393.649385857884	937.690103150902	43.993147467088	548.404834420561	171.342894308577	288.033083211952	440.050587361978	520.313989153917	1434.556369004929	493.016910073919	585.482005605971	1395.384016027091	656.505391639927	426.781725869749	395.502316907921	331.771471085144	715.005764052792	343.295755906436	646.187220708435	724.746225097925	30.642553384902	590.147096329511	594.865099519645	1414.131738481931	338.686325332778	813.911334347225	91.367878120090	544.490718574086	553.108511607809	1047.216925899775	748.972569749697	761.869788055029	880.257277346484	206.100683527496	592.631803557670	1076.664688935743	222.167801806076	640.069807341968	38.318896689159	527.876411030692	630.740166821636	806.392727702169	777.100333151179	277.761858046433	142.533586631018	400.975951899115	774.270001685829	730.957286865799	610.104735696971	684.106944009746	1354.751704009764	494.005611254081	791.510313389421	391.911076588817	590.910331963132	771.881549105609	217.723730462994	566.225347758969	701.387712408117	695.876027275867	356.477046394199	813.047264895666	510.355565189588	577.510236377296	184.284628293858	209.899652659546	376.234953518477	395.351949661280	277.169436825005	391.641378590771	654.213242093324	419.134898067116	386.639831711123	794.194795809654	622.554589332433	590.363551166908	706.659466726137	659.886486903768	665.935312389521	689.735079287187	564.202409493882	366.932280025385	601.448673984664	620.152418195866	321.902533716393	681.227308484120	965.037478987719	610.318923456650	669.702760795635	928.638309346029	352.947968744237	530.596303447664	359.605750324973	374.409436521849	495.155056222702	967.351097152675	494.526112722131	
39	28.754285714286	286.227575707875	26.242773065536	393.419078880768	923.660849796766	44.090114952177	548.479059798739	184.284838560770	295.885145283123	439.716827940257	520.183945711464	1436.804946186367	494.155921042655	586.486206513960	1397.565856281250	657.099105322573	442.129083478317	398.495927836817	333.024306045197	705.318373393973	343.617336716853	645.593082564564	710.769503205093	30.834972577049	590.191581589747	593.886700127753	1416.227485507114	339.398327808229	799.877251436045	91.396145940099	544.405396284719	559.696591726551	1049.030210028936	751.069501188420	753.552013697918	877.534758765953	207.556757910155	589.964918223577	1078.644237620117	224.490840091952	626.122874499316	38.245906232321	527.933632271048	642.542402754236	809.845913281499	778.659306493588	289.269388499542	148.835963702141	401.409000848320	772.167014369318	730.528235129932	610.965714684349	683.890082738953	1356.613614576475	494.091244323618	783.070980697310	390.872536847113	590.965588938224	760.187753104087	217.167500791190	566.072262685830	707.451700453844	699.412430084844	359.217741123619	806.764278619640	508.937686306666	577.416843010975	196.755748009582	217.686759035806	375.796867955725	408.643948342506	280.661565403211	392.924677670672	669.540880043227	421.311869754060	389.798133581963	789.882902769468	621.656356115597	590.833900264922	702.954496077728	660.311169748879	666.188637165037	700.425512815996	567.694968101742	370.330717424889	610.054195671203	620.667766315359	323.751955098491	681.322503935022	967.309097576432	610.929073637472	668.236384015381	930.765227031990	353.706882726127	545.442222073544	360.943869210876	376.527991354125	494.568956448942	969.527585340302	496.268436583210	
40	28.765714285714	299.334921990248	29.664779188711	393.352676371836	909.622692779135	44.214482591861	548.566032636058	197.295713946639	301.167978623994	439.469551139471	519.886414416295	1439.184105550686	495.186234481323	587.303674604544	1399.956407914578	657.583466919454	457.403850454568	401.832765645037	334.438054946153	695.115637515232	343.821115935645	644.979784463593	696.782019877179	30.939391655737	590.183591124813	592.708902538788	1418.404780271718	340.014910851902	785.813940463349	91.396105534411	544.352175596074	566.113067975792	1051.134334317437	753.013728635076	744.895569721600	875.253074640001	209.005007972854	586.851990664078	1080.746281165140	226.567068583172	612.154101554256	38.186651581227	527.940617121102	654.523744583183	813.827222861251	780.056887707480	303.163646225117	154.707611611516	401.932536591658	769.498760736320	729.833459699836	611.809108044852	683.485730025216	1358.609433267053	494.093219864903	774.021925151298	389.861156074562	590.996046618174	748.205336641573	216.609454984703	565.875117148625	713.174456878698	703.616915210287	361.681756241565	799.648301687450	507.405538974658	577.368312886172	210.690243449851	223.304937398653	375.445763523642	422.659458294000	284.207012579267	394.113935463627	684.696667917181	424.578671012996	392.598254350118	784.901109206422	620.461750782205	591.336967286983	698.438659501002	660.560203746813	666.214982065513	710.707566934500	572.048852065472	373.424217843458	618.245508308956	622.092704753293	325.450640878598	681.245194378873	969.482507796245	611.398066811623	666.574642905654	933.244556041823	354.301885421689	560.481934501565	363.030367193614	378.444918524619	493.808457787615	971.853441383239	497.997614979406	
